<?xml version="1.0" encoding="utf-8"?>
<!-- Generator: Adobe Illustrator 20.0.0, SVG Export Plug-In . SVG Version: 6.00 Build 0)  -->
<svg version="1.1" id="Layer_1" xmlns="http://www.w3.org/2000/svg" xmlns:xlink="http://www.w3.org/1999/xlink" x="0px" y="0px"
	 viewBox="0 0 1200 800" style="enable-background:new 0 0 1200 800;" xml:space="preserve">
<style type="text/css">
	.st0{fill:none;}
	.st1{fill:#47AA00;}
	.st2{font-family:'MVBoli';}
	.st3{font-size:92px;}
	.st4{fill:#CF8F2E;}
	.st5{fill:#F9F6F2;}
</style>
<rect x="99.4" y="59.8" class="st0" width="65" height="78"/>
<text transform="matrix(1 0 0 1 99.4264 130.3491)" class="st1 st2 st3">B</text>
<path class="st4" d="M116,134.2l88-9.1c0,0-0.9,20.9-36.9,26.9C128.3,158.4,116,134.2,116,134.2z"/>
<rect x="149.7" y="54.8" class="st0" width="83.5" height="71.1"/>
<text transform="matrix(1 0 0 1 149.713 125.3491)" class="st1 st2 st3">Q</text>
<path class="st4" d="M119.8,64.5l88.1-8.5c0,0-5.1-20.3-41.5-19C127.1,38.3,119.8,64.5,119.8,64.5z"/>
<path class="st5" d="M127.5,58c0,0,2.5-8,11.5-11S127.5,58,127.5,58z"/>
<path class="st5" d="M311,83"/>
<path class="st5" d="M131,52.3"/>
<path class="st5" d="M170.8,144.9c0,0,8.1,2.3,15.5-3.6C193.8,135.5,170.8,144.9,170.8,144.9z"/>
</svg>
